<svg version="1.1" id="Layer_1" xmlns="http://www.w3.org/2000/svg" xmlns:xlink="http://www.w3.org/1999/xlink" x="0px" y="0px"
	 width="100%" viewBox="0 0 363 359" enable-background="new 0 0 363 359" xml:space="preserve">
<path fill="#EBDE76" opacity="1.000000" stroke="none" 
	d="
M158.000000,0.999999 
	C174.020889,1.000000 190.041794,1.000000 206.777588,1.320815 
	C210.425720,2.087127 213.355850,2.554284 216.292694,2.974616 
	C235.879547,5.777955 254.044876,12.823106 270.993164,22.664141 
	C292.022430,34.874832 310.205048,50.533871 325.374542,69.741661 
	C343.319366,92.463577 355.608734,117.676567 360.958344,146.175705 
	C362.130615,152.420746 362.994263,158.723709 364.000000,165.000000 
	C364.000000,174.687561 364.000000,184.375122 363.675385,194.786987 
	C362.575226,201.388931 362.026886,207.307037 360.988068,213.137756 
	C352.831024,258.923035 329.177002,295.342316 292.719208,323.444519 
	C271.813232,339.559174 247.976151,350.156769 222.149124,355.945038 
	C214.830750,357.585236 207.386520,358.663849 200.000000,360.000000 
	C187.979111,360.000000 175.958206,360.000000 163.216995,359.677185 
	C157.449371,358.587372 152.387650,357.904236 147.357071,357.039886 
	C112.844452,351.109985 82.937294,335.724731 57.609177,311.836212 
	C48.765934,303.495636 40.969009,293.853058 33.738007,284.036224 
	C19.211538,264.315033 8.633130,242.602219 4.012925,218.315994 
	C2.856938,212.239532 1.996351,206.106842 1.000000,200.000000 
	C1.000000,185.979111 1.000000,171.958206 1.320544,157.221985 
	C2.450951,151.463058 2.955590,146.347748 4.120987,141.387695 
	C10.894565,112.558617 23.906935,86.701546 43.292374,64.441841 
	C57.459377,48.174297 73.643547,33.873993 92.600090,23.170176 
	C107.148521,14.955405 122.256218,8.030361 138.838669,4.874576 
	C145.239746,3.656396 151.613693,2.295741 158.000000,0.999999 
M136.005157,156.500000 
	C135.909531,149.002670 135.774872,141.505524 135.736862,134.007904 
	C135.720901,130.859619 134.405273,129.614395 131.165619,129.777176 
	C126.511208,130.011032 121.831657,129.964401 117.171906,129.792221 
	C114.227425,129.683426 113.105377,130.673248 112.945328,133.731033 
	C111.472366,161.874023 110.785446,189.990173 114.001434,218.080551 
	C117.243347,246.397324 133.399506,263.421417 161.750748,266.209229 
	C175.276367,267.539246 189.138290,267.621582 202.663513,266.333374 
	C231.301147,263.605652 249.163269,245.331223 250.918900,216.424026 
	C252.087006,197.190887 251.392456,177.796371 250.647949,158.508179 
	C249.811172,136.829086 238.277847,122.938118 217.473663,116.746887 
	C215.630157,116.198265 213.854538,115.421532 211.878906,114.688202 
	C220.201141,113.086617 228.320038,112.112450 236.079636,109.886002 
	C246.411026,106.921616 252.222366,97.009171 250.177933,86.706520 
	C243.660385,87.328850 237.069901,87.948059 230.481567,88.589249 
	C214.799484,90.115433 204.721542,97.734940 202.725815,114.138573 
	C202.709961,114.268875 202.515305,114.377426 202.404114,114.496132 
	C194.286407,116.253815 185.942581,117.806305 178.638351,121.445442 
	C150.827057,135.301651 145.697861,170.733109 168.546936,190.599991 
	C182.483276,202.717422 198.568939,207.456970 216.851242,201.678421 
	C220.420715,200.550201 224.041611,199.584686 229.064713,198.131653 
	C228.542038,205.716492 228.645706,212.194855 227.554779,218.465378 
	C224.867310,233.912689 217.462936,241.742584 201.875778,243.140823 
	C188.698807,244.322845 175.306335,243.567886 162.032181,243.064728 
	C149.845078,242.602753 142.460083,235.374878 139.131897,224.078415 
	C137.544678,218.691086 136.208832,213.022263 136.082489,207.450928 
	C135.705139,190.808563 135.981689,174.151382 136.005157,156.500000 
z"/>
<path fill="#FFFFFF" opacity="1.000000" stroke="none" 
	d="
M200.468658,360.000000 
	C207.386520,358.663849 214.830750,357.585236 222.149124,355.945038 
	C247.976151,350.156769 271.813232,339.559174 292.719208,323.444519 
	C329.177002,295.342316 352.831024,258.923035 360.988068,213.137756 
	C362.026886,207.307037 362.575226,201.388931 363.675385,195.255646 
	C364.000000,249.926788 364.000000,304.853577 364.000000,360.000000 
	C309.645966,360.000000 255.291641,360.000000 200.468658,360.000000 
z"/>
<path fill="#FFFFFF" opacity="1.000000" stroke="none" 
	d="
M364.000000,164.531342 
	C362.994263,158.723709 362.130615,152.420746 360.958344,146.175705 
	C355.608734,117.676567 343.319366,92.463577 325.374542,69.741661 
	C310.205048,50.533871 292.022430,34.874832 270.993164,22.664141 
	C254.044876,12.823106 235.879547,5.777955 216.292694,2.974616 
	C213.355850,2.554284 210.425720,2.087127 207.246246,1.320815 
	C259.261932,1.000000 311.523834,1.000000 364.000000,1.000000 
	C364.000000,55.354038 364.000000,109.708359 364.000000,164.531342 
z"/>
<path fill="#FFFFFF" opacity="1.000000" stroke="none" 
	d="
M1.000000,200.468658 
	C1.996351,206.106842 2.856938,212.239532 4.012925,218.315994 
	C8.633130,242.602219 19.211538,264.315033 33.738007,284.036224 
	C40.969009,293.853058 48.765934,303.495636 57.609177,311.836212 
	C82.937294,335.724731 112.844452,351.109985 147.357071,357.039886 
	C152.387650,357.904236 157.449371,358.587372 162.748337,359.677185 
	C109.073441,360.000000 55.146885,360.000000 1.000000,360.000000 
	C1.000000,306.979309 1.000000,253.958313 1.000000,200.468658 
z"/>
<path fill="#FFFFFF" opacity="1.000000" stroke="none" 
	d="
M157.531342,0.999999 
	C151.613693,2.295741 145.239746,3.656396 138.838669,4.874576 
	C122.256218,8.030361 107.148521,14.955405 92.600090,23.170176 
	C73.643547,33.873993 57.459377,48.174297 43.292374,64.441841 
	C23.906935,86.701546 10.894565,112.558617 4.120987,141.387695 
	C2.955590,146.347748 2.450951,151.463058 1.320544,156.753326 
	C1.000000,105.072762 1.000000,53.145519 1.000000,1.000000 
	C53.020691,1.000000 105.041687,1.000000 157.531342,0.999999 
z"/>
<path fill="#696462" opacity="1.000000" stroke="none" 
	d="
M136.004028,157.000000 
	C135.981689,174.151382 135.705139,190.808563 136.082489,207.450928 
	C136.208832,213.022263 137.544678,218.691086 139.131897,224.078415 
	C142.460083,235.374878 149.845078,242.602753 162.032181,243.064728 
	C175.306335,243.567886 188.698807,244.322845 201.875778,243.140823 
	C217.462936,241.742584 224.867310,233.912689 227.554779,218.465378 
	C228.645706,212.194855 228.542038,205.716492 229.064713,198.131653 
	C224.041611,199.584686 220.420715,200.550201 216.851242,201.678421 
	C198.568939,207.456970 182.483276,202.717422 168.546936,190.599991 
	C145.697861,170.733109 150.827057,135.301651 178.638351,121.445442 
	C185.942581,117.806305 194.286407,116.253815 202.404114,114.496132 
	C202.515305,114.377426 202.709961,114.268875 202.725815,114.138573 
	C204.721542,97.734940 214.799484,90.115433 230.481567,88.589249 
	C237.069901,87.948059 243.660385,87.328850 250.177933,86.706520 
	C252.222366,97.009171 246.411026,106.921616 236.079636,109.886002 
	C228.320038,112.112450 220.201141,113.086617 211.878906,114.688202 
	C213.854538,115.421532 215.630157,116.198265 217.473663,116.746887 
	C238.277847,122.938118 249.811172,136.829086 250.647949,158.508179 
	C251.392456,177.796371 252.087006,197.190887 250.918900,216.424026 
	C249.163269,245.331223 231.301147,263.605652 202.663513,266.333374 
	C189.138290,267.621582 175.276367,267.539246 161.750748,266.209229 
	C133.399506,263.421417 117.243347,246.397324 114.001434,218.080551 
	C110.785446,189.990173 111.472366,161.874023 112.945328,133.731033 
	C113.105377,130.673248 114.227425,129.683426 117.171906,129.792221 
	C121.831657,129.964401 126.511208,130.011032 131.165619,129.777176 
	C134.405273,129.614395 135.720901,130.859619 135.736862,134.007904 
	C135.774872,141.505524 135.909531,149.002670 136.004028,157.000000 
M202.506836,181.129517 
	C204.003036,181.068176 205.510345,181.102600 206.993698,180.930542 
	C220.349716,179.381271 228.552933,170.771713 228.064621,158.863266 
	C227.464325,144.223877 213.095551,134.703873 197.213257,138.422775 
	C185.437012,141.180206 178.210083,148.601181 177.879410,158.275665 
	C177.440704,171.112045 187.106186,180.426727 202.506836,181.129517 
z"/>
<path fill="#EADD76" opacity="1.000000" stroke="none" 
	d="
M202.048965,181.128143 
	C187.106186,180.426727 177.440704,171.112045 177.879410,158.275665 
	C178.210083,148.601181 185.437012,141.180206 197.213257,138.422775 
	C213.095551,134.703873 227.464325,144.223877 228.064621,158.863266 
	C228.552933,170.771713 220.349716,179.381271 206.993698,180.930542 
	C205.510345,181.102600 204.003036,181.068176 202.048965,181.128143 
z"/>
</svg>